<svg width="128" height="128" viewBox="0 0 128 128" fill="none" xmlns="http://www.w3.org/2000/svg">
  <rect width="128" height="128" rx="64" fill="#080808"/>
  <circle cx="64" cy="64" r="54" stroke="#C9962B" stroke-width="3"/>
  <circle cx="64" cy="64" r="40" stroke="#C9962B" stroke-width="2"/>
  <path d="M64 37c7 0 13 3 17 8-3-1-6-1-9 0 6 1 10 6 10 12 0 7-5 12-12 13v4c0 4 3 7 7 7-4 5-8 8-13 9-5-1-9-4-13-9 4 0 7-3 7-7v-4c-7-1-12-6-12-13 0-6 4-11 10-12-3-1-6-1-9 0 4-5 10-8 17-8z" fill="#C9962B"/>
  <path d="M49 59h30" stroke="#080808" stroke-width="4" stroke-linecap="round"/>
  <path d="M53 67c2 5 6 8 11 8s9-3 11-8" stroke="#080808" stroke-width="4" stroke-linecap="round"/>
</svg>
